<mxfile host="app.diagrams.net" modified="2023-04-09T19:58:24.967Z" agent="Mozilla/5.0 (X11; Linux x86_64; rv:109.0) Gecko/20100101 Firefox/111.0" etag="riDI9pXDgAye81tAoNBy" version="21.1.4" type="device">
  <diagram name="Page-1" id="fpuRdL1RuoapfyxhOyUc">
    <mxGraphModel dx="882" dy="708" grid="1" gridSize="10" guides="1" tooltips="1" connect="1" arrows="1" fold="1" page="1" pageScale="1" pageWidth="850" pageHeight="1100" math="0" shadow="0">
      <root>
        <mxCell id="0" />
        <mxCell id="1" parent="0" />
        <mxCell id="yoe0yxvbOOTikNjLZrFT-1" style="edgeStyle=orthogonalEdgeStyle;rounded=0;orthogonalLoop=1;jettySize=auto;html=1;entryX=0.5;entryY=0;entryDx=0;entryDy=0;" edge="1" parent="1" source="ElI9jbEV-BnsTaFzMSvC-1" target="ElI9jbEV-BnsTaFzMSvC-2">
          <mxGeometry relative="1" as="geometry">
            <Array as="points">
              <mxPoint x="420" y="180" />
              <mxPoint x="200" y="180" />
            </Array>
          </mxGeometry>
        </mxCell>
        <mxCell id="yoe0yxvbOOTikNjLZrFT-2" style="edgeStyle=orthogonalEdgeStyle;rounded=0;orthogonalLoop=1;jettySize=auto;html=1;entryX=0.5;entryY=0;entryDx=0;entryDy=0;" edge="1" parent="1" source="ElI9jbEV-BnsTaFzMSvC-1" target="ElI9jbEV-BnsTaFzMSvC-3">
          <mxGeometry relative="1" as="geometry" />
        </mxCell>
        <mxCell id="yoe0yxvbOOTikNjLZrFT-3" style="edgeStyle=orthogonalEdgeStyle;rounded=0;orthogonalLoop=1;jettySize=auto;html=1;entryX=0.5;entryY=0;entryDx=0;entryDy=0;" edge="1" parent="1" source="ElI9jbEV-BnsTaFzMSvC-1" target="ElI9jbEV-BnsTaFzMSvC-4">
          <mxGeometry relative="1" as="geometry">
            <Array as="points">
              <mxPoint x="420" y="180" />
              <mxPoint x="620" y="180" />
            </Array>
          </mxGeometry>
        </mxCell>
        <mxCell id="ElI9jbEV-BnsTaFzMSvC-1" value="&lt;div&gt;ТУСУР&lt;/div&gt;&lt;div&gt;Ректор&lt;br&gt;&lt;/div&gt;" style="whiteSpace=wrap;html=1;fillColor=#f5f5f5;fontColor=#333333;strokeColor=#666666;" parent="1" vertex="1">
          <mxGeometry x="360" y="110" width="120" height="60" as="geometry" />
        </mxCell>
        <mxCell id="yoe0yxvbOOTikNjLZrFT-4" style="edgeStyle=orthogonalEdgeStyle;rounded=0;orthogonalLoop=1;jettySize=auto;html=1;entryX=0.5;entryY=0;entryDx=0;entryDy=0;" edge="1" parent="1" source="ElI9jbEV-BnsTaFzMSvC-2" target="ElI9jbEV-BnsTaFzMSvC-5">
          <mxGeometry relative="1" as="geometry" />
        </mxCell>
        <mxCell id="yoe0yxvbOOTikNjLZrFT-5" style="edgeStyle=orthogonalEdgeStyle;rounded=0;orthogonalLoop=1;jettySize=auto;html=1;entryX=0.5;entryY=0;entryDx=0;entryDy=0;" edge="1" parent="1" source="ElI9jbEV-BnsTaFzMSvC-2" target="ElI9jbEV-BnsTaFzMSvC-6">
          <mxGeometry relative="1" as="geometry">
            <Array as="points">
              <mxPoint x="200" y="300" />
              <mxPoint x="420" y="300" />
            </Array>
          </mxGeometry>
        </mxCell>
        <mxCell id="ElI9jbEV-BnsTaFzMSvC-2" value="Службы проректора по молодёжной политике и воспитательной деятельности" style="whiteSpace=wrap;html=1;fillColor=#f5f5f5;fontColor=#333333;strokeColor=#666666;" parent="1" vertex="1">
          <mxGeometry x="120" y="200" width="160" height="80" as="geometry" />
        </mxCell>
        <mxCell id="ElI9jbEV-BnsTaFzMSvC-3" value="Департамент образования" style="whiteSpace=wrap;html=1;" parent="1" vertex="1">
          <mxGeometry x="360" y="200" width="120" height="80" as="geometry" />
        </mxCell>
        <mxCell id="ElI9jbEV-BnsTaFzMSvC-4" value="Другие службы и департаменты" style="whiteSpace=wrap;html=1;" parent="1" vertex="1">
          <mxGeometry x="560" y="200" width="120" height="80" as="geometry" />
        </mxCell>
        <mxCell id="yoe0yxvbOOTikNjLZrFT-6" style="edgeStyle=orthogonalEdgeStyle;rounded=0;orthogonalLoop=1;jettySize=auto;html=1;entryX=0.5;entryY=0;entryDx=0;entryDy=0;" edge="1" parent="1" source="ElI9jbEV-BnsTaFzMSvC-5" target="ElI9jbEV-BnsTaFzMSvC-7">
          <mxGeometry relative="1" as="geometry" />
        </mxCell>
        <mxCell id="yoe0yxvbOOTikNjLZrFT-7" style="edgeStyle=orthogonalEdgeStyle;rounded=0;orthogonalLoop=1;jettySize=auto;html=1;entryX=0.5;entryY=0;entryDx=0;entryDy=0;" edge="1" parent="1" source="ElI9jbEV-BnsTaFzMSvC-5" target="ElI9jbEV-BnsTaFzMSvC-8">
          <mxGeometry relative="1" as="geometry">
            <Array as="points">
              <mxPoint x="200" y="420" />
              <mxPoint x="420" y="420" />
            </Array>
          </mxGeometry>
        </mxCell>
        <mxCell id="yoe0yxvbOOTikNjLZrFT-8" style="edgeStyle=orthogonalEdgeStyle;rounded=0;orthogonalLoop=1;jettySize=auto;html=1;entryX=0.5;entryY=0;entryDx=0;entryDy=0;" edge="1" parent="1" source="ElI9jbEV-BnsTaFzMSvC-5" target="ElI9jbEV-BnsTaFzMSvC-9">
          <mxGeometry relative="1" as="geometry">
            <Array as="points">
              <mxPoint x="200" y="420" />
              <mxPoint x="620" y="420" />
            </Array>
          </mxGeometry>
        </mxCell>
        <mxCell id="ElI9jbEV-BnsTaFzMSvC-5" value="Управление воспитательной работы (УВР)" style="whiteSpace=wrap;html=1;fillColor=#f5f5f5;fontColor=#333333;strokeColor=#666666;" parent="1" vertex="1">
          <mxGeometry x="120" y="320" width="160" height="80" as="geometry" />
        </mxCell>
        <mxCell id="ElI9jbEV-BnsTaFzMSvC-6" value="Центр компетенций " style="whiteSpace=wrap;html=1;" parent="1" vertex="1">
          <mxGeometry x="360" y="320" width="120" height="80" as="geometry" />
        </mxCell>
        <mxCell id="yoe0yxvbOOTikNjLZrFT-9" style="edgeStyle=orthogonalEdgeStyle;rounded=0;orthogonalLoop=1;jettySize=auto;html=1;entryX=0.5;entryY=0;entryDx=0;entryDy=0;" edge="1" parent="1" source="ElI9jbEV-BnsTaFzMSvC-7" target="ElI9jbEV-BnsTaFzMSvC-10">
          <mxGeometry relative="1" as="geometry" />
        </mxCell>
        <mxCell id="yoe0yxvbOOTikNjLZrFT-13" style="edgeStyle=orthogonalEdgeStyle;rounded=0;orthogonalLoop=1;jettySize=auto;html=1;entryX=0.5;entryY=0;entryDx=0;entryDy=0;" edge="1" parent="1" source="ElI9jbEV-BnsTaFzMSvC-7" target="yoe0yxvbOOTikNjLZrFT-10">
          <mxGeometry relative="1" as="geometry">
            <Array as="points">
              <mxPoint x="200" y="550" />
              <mxPoint x="365" y="550" />
            </Array>
          </mxGeometry>
        </mxCell>
        <mxCell id="yoe0yxvbOOTikNjLZrFT-14" style="edgeStyle=orthogonalEdgeStyle;rounded=0;orthogonalLoop=1;jettySize=auto;html=1;entryX=0.5;entryY=0;entryDx=0;entryDy=0;" edge="1" parent="1" source="ElI9jbEV-BnsTaFzMSvC-7" target="yoe0yxvbOOTikNjLZrFT-11">
          <mxGeometry relative="1" as="geometry">
            <Array as="points">
              <mxPoint x="200" y="550" />
              <mxPoint x="510" y="550" />
            </Array>
          </mxGeometry>
        </mxCell>
        <mxCell id="yoe0yxvbOOTikNjLZrFT-15" style="edgeStyle=orthogonalEdgeStyle;rounded=0;orthogonalLoop=1;jettySize=auto;html=1;entryX=0.5;entryY=0;entryDx=0;entryDy=0;" edge="1" parent="1" source="ElI9jbEV-BnsTaFzMSvC-7" target="yoe0yxvbOOTikNjLZrFT-12">
          <mxGeometry relative="1" as="geometry">
            <Array as="points">
              <mxPoint x="200" y="550" />
              <mxPoint x="660" y="550" />
            </Array>
          </mxGeometry>
        </mxCell>
        <mxCell id="ElI9jbEV-BnsTaFzMSvC-7" value="Отдел по культурно-массовой работе" style="whiteSpace=wrap;html=1;fillColor=#f5f5f5;fontColor=#333333;strokeColor=#666666;" parent="1" vertex="1">
          <mxGeometry x="120" y="440" width="160" height="80" as="geometry" />
        </mxCell>
        <mxCell id="ElI9jbEV-BnsTaFzMSvC-8" value="Отдел по воспитательной работе" style="whiteSpace=wrap;html=1;" parent="1" vertex="1">
          <mxGeometry x="360" y="440" width="120" height="80" as="geometry" />
        </mxCell>
        <mxCell id="ElI9jbEV-BnsTaFzMSvC-9" value="Отдел по физкультурно-оздоровительной работе и здоровому образу жизни" style="whiteSpace=wrap;html=1;" parent="1" vertex="1">
          <mxGeometry x="560" y="440" width="120" height="80" as="geometry" />
        </mxCell>
        <mxCell id="ElI9jbEV-BnsTaFzMSvC-10" value="Музыкальный коллектив&lt;br&gt;&quot;Ad Astra&quot;" style="whiteSpace=wrap;html=1;fillColor=#f5f5f5;fontColor=#333333;strokeColor=#666666;" parent="1" vertex="1">
          <mxGeometry x="120" y="570" width="160" height="60" as="geometry" />
        </mxCell>
        <mxCell id="yoe0yxvbOOTikNjLZrFT-10" value="Рок-клуб ТУСУРа" style="whiteSpace=wrap;html=1;" vertex="1" parent="1">
          <mxGeometry x="305" y="570" width="120" height="60" as="geometry" />
        </mxCell>
        <mxCell id="yoe0yxvbOOTikNjLZrFT-11" value="СТЭМ &quot;Амплуа&quot;" style="whiteSpace=wrap;html=1;" vertex="1" parent="1">
          <mxGeometry x="450" y="570" width="120" height="60" as="geometry" />
        </mxCell>
        <mxCell id="yoe0yxvbOOTikNjLZrFT-12" value="Студия фехтования &quot;Эллекен&quot;" style="whiteSpace=wrap;html=1;" vertex="1" parent="1">
          <mxGeometry x="600" y="570" width="120" height="60" as="geometry" />
        </mxCell>
      </root>
    </mxGraphModel>
  </diagram>
</mxfile>
